<svg width="24" height="25" viewBox="0 0 24 25" fill="none" xmlns="http://www.w3.org/2000/svg">
<path opacity="0.1" fill-rule="evenodd" clip-rule="evenodd" d="M0 12.582C0 5.95461 5.37258 0.582031 12 0.582031C18.6274 0.582031 24 5.95461 24 12.582C24 19.2094 18.6274 24.582 12 24.582C5.37258 24.582 0 19.2094 0 12.582Z" fill="#FBDB67"/>
<path d="M15.3581 13.1456L15.7107 10.8466H13.5049V9.35534C13.5049 8.72621 13.8124 8.11262 14.8004 8.11262H15.8039V6.15534C15.8039 6.15534 14.8936 6 14.0237 6C12.2062 6 11.0194 7.10136 11.0194 9.09437V10.8466H9V13.1456H11.0194V18.7037C11.4249 18.7674 11.8396 18.8 12.2621 18.8C12.6847 18.8 13.0994 18.7674 13.5049 18.7037V13.1456H15.3581Z" fill="#FBDB67"/>
</svg>
