<svg width="24" height="25" viewBox="0 0 24 25" fill="none" xmlns="http://www.w3.org/2000/svg">
<path opacity="0.1" fill-rule="evenodd" clip-rule="evenodd" d="M0 12.582C0 5.95461 5.37258 0.582031 12 0.582031C18.6274 0.582031 24 5.95461 24 12.582C24 19.2094 18.6274 24.582 12 24.582C5.37258 24.582 0 19.2094 0 12.582Z" fill="#FBDB67"/>
<path fill-rule="evenodd" clip-rule="evenodd" d="M12.0002 6.18164C10.2621 6.18164 10.0439 6.18924 9.36125 6.22031C8.67991 6.25151 8.21484 6.35938 7.8079 6.51764C7.38696 6.68111 7.02989 6.89978 6.67415 7.25565C6.31815 7.61139 6.09948 7.96846 5.93548 8.38926C5.77681 8.79633 5.66881 9.26154 5.63814 9.94261C5.60761 10.6253 5.59961 10.8436 5.59961 12.5817C5.59961 14.3199 5.60734 14.5373 5.63828 15.22C5.66961 15.9013 5.77748 16.3664 5.93561 16.7734C6.09921 17.1943 6.31788 17.5514 6.67375 17.9071C7.02936 18.2631 7.38643 18.4823 7.8071 18.6458C8.2143 18.804 8.67951 18.9119 9.36072 18.9431C10.0434 18.9742 10.2614 18.9818 11.9994 18.9818C13.7377 18.9818 13.9552 18.9742 14.6378 18.9431C15.3192 18.9119 15.7848 18.804 16.192 18.6458C16.6128 18.4823 16.9693 18.2631 17.3249 17.9071C17.6809 17.5514 17.8996 17.1943 18.0636 16.7735C18.2209 16.3664 18.3289 15.9012 18.3609 15.2201C18.3916 14.5375 18.3996 14.3199 18.3996 12.5817C18.3996 10.8436 18.3916 10.6254 18.3609 9.94275C18.3289 9.26141 18.2209 8.79633 18.0636 8.3894C17.8996 7.96846 17.6809 7.61139 17.3249 7.25565C16.9689 6.89965 16.6129 6.68098 16.1916 6.51764C15.7836 6.35938 15.3182 6.25151 14.6369 6.22031C13.9542 6.18924 13.7369 6.18164 11.9982 6.18164H12.0002ZM11.426 7.33497C11.5964 7.3347 11.7866 7.33497 12.0002 7.33497C13.709 7.33497 13.9115 7.3411 14.5863 7.37177C15.2103 7.4003 15.549 7.50457 15.7746 7.59217C16.0733 7.70817 16.2862 7.84684 16.5101 8.07084C16.7341 8.29484 16.8728 8.50818 16.989 8.80685C17.0766 9.03219 17.181 9.37086 17.2094 9.99486C17.2401 10.6695 17.2468 10.8722 17.2468 12.5802C17.2468 14.2882 17.2401 14.4909 17.2094 15.1656C17.1809 15.7896 17.0766 16.1283 16.989 16.3536C16.873 16.6523 16.7341 16.8649 16.5101 17.0888C16.2861 17.3128 16.0734 17.4515 15.7746 17.5675C15.5493 17.6555 15.2103 17.7595 14.5863 17.788C13.9117 17.8187 13.709 17.8253 12.0002 17.8253C10.2912 17.8253 10.0887 17.8187 9.41402 17.788C8.79002 17.7592 8.45134 17.6549 8.22561 17.5673C7.92694 17.4513 7.7136 17.3127 7.4896 17.0887C7.2656 16.8647 7.12693 16.6519 7.01066 16.3531C6.92306 16.1277 6.81866 15.7891 6.79026 15.1651C6.75959 14.4904 6.75346 14.2877 6.75346 12.5786C6.75346 10.8695 6.75959 10.6679 6.79026 9.99326C6.81879 9.36926 6.92306 9.03059 7.01066 8.80498C7.12666 8.50631 7.2656 8.29298 7.4896 8.06898C7.7136 7.84497 7.92694 7.70631 8.22561 7.59004C8.45121 7.50204 8.79002 7.39804 9.41402 7.36937C10.0044 7.3427 10.2332 7.3347 11.426 7.33337V7.33497ZM15.4165 8.39765C14.9925 8.39765 14.6485 8.74125 14.6485 9.16539C14.6485 9.58939 14.9925 9.9334 15.4165 9.9334C15.8405 9.9334 16.1845 9.58939 16.1845 9.16539C16.1845 8.74139 15.8405 8.39765 15.4165 8.39765ZM12.0002 9.29499C10.1851 9.29499 8.71352 10.7666 8.71352 12.5817C8.71352 14.3968 10.1851 15.8677 12.0002 15.8677C13.8153 15.8677 15.2864 14.3968 15.2864 12.5817C15.2864 10.7666 13.8153 9.29499 12.0002 9.29499ZM12.0002 10.4483C13.1783 10.4483 14.1336 11.4034 14.1336 12.5817C14.1336 13.7598 13.1783 14.715 12.0002 14.715C10.8219 14.715 9.86684 13.7598 9.86684 12.5817C9.86684 11.4034 10.8219 10.4483 12.0002 10.4483Z" fill="#FBDB67"/>
</svg>
