<svg width="24" height="24" viewBox="0 0 24 24" fill="none" xmlns="http://www.w3.org/2000/svg">
<path opacity="0.1" fill-rule="evenodd" clip-rule="evenodd" d="M0 12C0 5.37258 5.37258 0 12 0C18.6274 0 24 5.37258 24 12C24 18.6274 18.6274 24 12 24C5.37258 24 0 18.6274 0 12Z" fill="#FBDB67"/>
<path d="M9.4758 8.14213C9.46151 7.4938 8.99789 7 8.24504 7C7.49219 7 7 7.4938 7 8.14213C7 8.77703 7.47764 9.28505 8.21647 9.28505H8.23054C8.99789 9.28505 9.4758 8.77703 9.4758 8.14213Z" fill="#FBDB67"/>
<path d="M9.33086 10.1876H7.13014L7.13014 16.7998H9.33086L9.33086 10.1876Z" fill="#FBDB67"/>
<path d="M14.7336 10.0323C16.1818 10.0323 17.2675 10.9776 17.2675 13.0086L17.2674 16.7998H15.0668V13.2623C15.0668 12.3737 14.7483 11.7674 13.9517 11.7674C13.3437 11.7674 12.9815 12.1761 12.8225 12.5709C12.7643 12.7124 12.75 12.9096 12.75 13.1072L12.75 16.8H10.549C10.549 16.8 10.578 10.8082 10.549 10.1878L12.75 10.1878V11.1243C13.0421 10.6741 13.5652 10.0323 14.7336 10.0323Z" fill="#FBDB67"/>
</svg>
