<svg width="24" height="25" viewBox="0 0 24 25" fill="none" xmlns="http://www.w3.org/2000/svg">
<path opacity="0.1" fill-rule="evenodd" clip-rule="evenodd" d="M0 12.582C0 5.95461 5.37258 0.582031 12 0.582031C18.6274 0.582031 24 5.95461 24 12.582C24 19.2094 18.6274 24.582 12 24.582C5.37258 24.582 0 19.2094 0 12.582Z" fill="#FBDB67"/>
<path fill-rule="evenodd" clip-rule="evenodd" d="M11.6406 10.336L11.6658 10.7512L11.2461 10.7004C9.71843 10.5055 8.38383 9.84448 7.25067 8.73439L6.69668 8.18358L6.55399 8.59033C6.25181 9.49705 6.44487 10.4546 7.0744 11.0986C7.41015 11.4545 7.33461 11.5054 6.75544 11.2935C6.55399 11.2257 6.37772 11.1749 6.36093 11.2003C6.30218 11.2596 6.50363 12.0308 6.66311 12.3358C6.88134 12.7595 7.32621 13.1748 7.81305 13.4205L8.22434 13.6154L7.73751 13.6239C7.26746 13.6239 7.25067 13.6324 7.30103 13.8103C7.46891 14.3611 8.13201 14.9458 8.87066 15.2001L9.39108 15.378L8.93781 15.6492C8.26631 16.039 7.4773 16.2593 6.68829 16.2763C6.31057 16.2847 6 16.3186 6 16.3441C6 16.4288 7.02404 16.9033 7.61999 17.0898C9.40786 17.6406 11.5315 17.4033 13.1263 16.4627C14.2595 15.7932 15.3926 14.4628 15.9214 13.1748C16.2068 12.4884 16.4922 11.2342 16.4922 10.6326C16.4922 10.2428 16.5174 10.1919 16.9874 9.72585C17.2644 9.45468 17.5246 9.15809 17.575 9.07335C17.6589 8.91234 17.6505 8.91234 17.2224 9.0564C16.509 9.31062 16.4083 9.27672 16.7608 8.89539C17.021 8.62422 17.3316 8.13273 17.3316 7.98867C17.3316 7.96325 17.2057 8.00562 17.063 8.08189C16.9119 8.16663 16.5761 8.29374 16.3243 8.37L15.8711 8.51406L15.4598 8.23442C15.2331 8.08189 14.9142 7.91241 14.7463 7.86156C14.3182 7.74293 13.6635 7.75987 13.2774 7.89546C12.2282 8.27679 11.5651 9.25978 11.6406 10.336Z" fill="#FBDB67"/>
</svg>
